<?xml version="1.0" encoding="utf-8"?>
<!-- Generator: Adobe Illustrator 28.0.0, SVG Export Plug-In . SVG Version: 6.00 Build 0)  -->
<svg version="1.1" id="Capa_1" xmlns="http://www.w3.org/2000/svg" xmlns:xlink="http://www.w3.org/1999/xlink" x="0px" y="0px"
	 viewBox="0 0 300 300" style="enable-background:new 0 0 300 300;" xml:space="preserve">
<path d="M115.7,98.1c-16.4-16.4-43-16.4-59.5,0c-16.4,16.4-16.4,43,0,59.4c16.4,16.4,43,16.4,59.5,0
	C132.1,141.1,132.1,114.5,115.7,98.1L115.7,98.1z"/>
<path d="M115.4,184.9h-13.3l-4.5,12.7l7,57.5c0.2,1.8-0.7,3.4-2.2,4.3l-14.1,9.5c-0.2,0.1-0.4,0.2-0.6,0.3v0l-0.1,0h0l-0.1,0l-0.1,0
	l0,0c-0.6,0.2-1.1,0.4-1.7,0.4c-0.6,0-1.1-0.1-1.7-0.4l0,0l-0.1,0l-0.1,0h0l-0.1,0v0c-0.2-0.1-0.4-0.2-0.6-0.3l-14.1-9.5
	c-1.5-0.8-2.4-2.5-2.2-4.3l7-57.5l-4.5-12.7H56.6c-31.5,0-57.2,25.7-57.2,57.2v57.2h26.4v-59.2c0-2.4,1.9-4.3,4.3-4.3
	c2.4,0,4.3,1.9,4.3,4.3v59.2h103.2v-59.2c0-2.4,1.9-4.3,4.3-4.3s4.3,1.9,4.3,4.3v59.2h26.4v-57.2
	C172.6,210.6,146.9,184.9,115.4,184.9L115.4,184.9L115.4,184.9z"/>
<polygon points="93,184.9 78.8,184.9 81.6,192.7 90.2,192.7 93,184.9 "/>
<polygon points="82.4,201.4 76,253.5 85.9,260.2 95.8,253.5 89.4,201.4 82.4,201.4 "/>
<path d="M278.3,65.1h-99.5c-7.6,0-13.8,6.2-13.8,13.8v47.3c0,6.2,4.2,11.7,10.1,13.3c2,0.6,3.2,2.6,2.7,4.6l-3.8,16.7l19.2-19.7
	c0.8-0.8,1.8-1.2,2.8-1.2h36h0h46.4c7.6,0,13.8-6.2,13.8-13.8V78.9C292.1,71.3,285.9,65.1,278.3,65.1z M186.1,78h57.7
	c2.2,0,3.9,1.7,3.9,3.9c0,2.1-1.7,3.9-3.9,3.9h-57.7c-2.1,0-3.9-1.7-3.9-3.9C182.2,79.8,183.9,78,186.1,78z M186.1,99.1h84.8
	c2.1,0,3.9,1.7,3.9,3.9s-1.8,3.9-3.9,3.9h-84.8c-2.1,0-3.9-1.7-3.9-3.9S183.9,99.1,186.1,99.1z M271.4,128h-84.8
	c-2.1,0-3.9-1.8-3.9-3.9c0-2.1,1.8-3.9,3.9-3.9h84.8c2.1,0,3.9,1.7,3.9,3.9C275.2,126.2,273.5,128,271.4,128z"/>
<g>
	<path d="M274.4,222.2c1.6-6.4,1.6-13.1,0-19.5h0c-0.4-1.6,0.3-3.4,1.8-4.3l8.1-4.7l-8.3-14.4l-7.9,4.5c-1.5,1-3.5,0.8-4.8-0.4
		c-2.4-2.3-5-4.3-7.9-5.9v0c-2.7-1.6-5.7-2.9-8.8-3.8c-1.7-0.4-3-1.9-3-3.8v-9.3H227v9.3c0,1.7-1.1,3.3-2.8,3.7
		c-6.1,1.7-12.3,5.2-16.8,9.6c-1.2,1.3-3.2,1.6-4.7,0.6l-8.1-4.7l-8.3,14.4l7.9,4.5c1.6,0.8,2.5,2.6,2,4.4c-1.6,6.3-1.6,13.1,0,19.5
		c0.4,1.6-0.3,3.4-1.8,4.3l-8.1,4.7l8.3,14.4l8.1-4.7c1.5-0.8,3.4-0.7,4.7,0.6c4.4,4.3,10.7,8.1,16.7,9.7c1.7,0.4,3,2,3,3.8v9.3
		h16.6V255h0c0-1.7,1.1-3.3,2.8-3.7c6.1-1.8,12.3-5.2,16.8-9.7c1.2-1.2,3.2-1.6,4.7-0.6l8.1,4.7l8.3-14.4l-7.8-4.5
		C274.9,225.8,274,224,274.4,222.2z M235.3,241.6c-16.1,0-29.2-13-29.2-29.1c0-16.1,13.1-29.1,29.2-29.1c16.1,0,29.1,13,29.1,29.1
		C264.4,228.5,251.4,241.6,235.3,241.6z"/>
	<path d="M220.2,197.3c-8.3,8.3-8.3,21.9,0,30.2c8.3,8.3,21.9,8.3,30.2,0c8.3-8.3,8.3-21.9,0-30.2C242,189,228.5,189,220.2,197.3z
		 M246.6,208.7l-13,13c-1.5,1.5-4,1.5-5.5,0c-0.3-0.3-0.6-0.7-0.8-1.1l-4.1-7.1v0c-1.1-1.9-0.4-4.2,1.4-5.3c1.8-1.1,4.2-0.4,5.3,1.4
		l1.7,3l9.4-9.4c1.5-1.5,4-1.5,5.5,0C248.2,204.7,248.2,207.2,246.6,208.7z"/>
</g>
</svg>
