<?xml version="1.0" encoding="utf-8"?>
<!-- Generator: Adobe Illustrator 28.0.0, SVG Export Plug-In . SVG Version: 6.00 Build 0)  -->
<svg version="1.1" id="Capa_1" xmlns="http://www.w3.org/2000/svg" xmlns:xlink="http://www.w3.org/1999/xlink" x="0px" y="0px"
	 viewBox="0 0 300 300" style="enable-background:new 0 0 300 300;" xml:space="preserve">
<path d="M181.3,253.2c-2.2,0-3.9-1.7-3.9-3.9c0-2.2,1.7-3.9,3.9-3.9h16.2c2.2,0,3.9,1.7,3.9,3.9s-1.7,3.9-3.9,3.9H181.3z"/>
<path d="M126.7,120c-0.1-0.3-0.1-0.5-0.1-0.8c-1.4-7-4.9-13.7-10.3-19.2c-14.7-14.7-38.6-14.7-53.3,0c-14.7,14.7-14.7,38.6,0,53.3
	c14.7,14.7,38.6,14.7,53.3,0C125.3,144.2,128.8,131.7,126.7,120L126.7,120L126.7,120z"/>
<path d="M182.3,181c-2.2,0-3.9-1.8-3.9-3.9c0-2.2,1.7-3.9,3.9-3.9h7.7c2.2,0,3.9,1.7,3.9,3.9c0,2.2-1.7,3.9-3.9,3.9H182.3z"/>
<g>
	<path d="M277.1,13.2H101.7c-6.1,0-11,5-11,11v57c3.3,0.1,6.6,0.5,9.7,1.3V39.2c0-9,7.3-16.3,16.3-16.3h145.5
		c9,0,16.3,7.3,16.3,16.3v182.1c0,9-7.3,16.3-16.3,16.3h-87V261l0,0h102c6,0,11-5,11-11V24.2C288.1,18.1,283.1,13.2,277.1,13.2z"/>
	<path d="M175.1,229.7h87c4.6,0,8.5-3.8,8.5-8.5V39.2c0-4.6-3.8-8.5-8.5-8.5H116.6c-4.6,0-8.5,3.8-8.5,8.5v45.9
		c12.4,5.5,21.9,16.5,25.4,29.8h113.5c2.2,0,3.9,1.7,3.9,3.9c0,2.2-1.8,3.9-3.9,3.9H134.9c0.1,1.3,0.2,2.6,0.2,3.9
		c0,18.5-11,34.5-26.9,41.6h0v1.9h7.8c32.5,0,59.1,26.6,59.1,59.1V229.7z M251,89.7c0,2.2-1.8,3.9-3.9,3.9H130.4
		c-2.2,0-3.9-1.8-3.9-3.9V53.7c0-2.2,1.8-3.9,3.9-3.9h116.7c2.2,0,3.9,1.7,3.9,3.9V89.7z M219.7,210h-37.4c-2.2,0-3.9-1.7-3.9-3.9
		c0-2.2,1.7-3.9,3.9-3.9h37.4c2.2,0,3.9,1.7,3.9,3.9S221.9,210,219.7,210z M247.1,210h-10.3c-2.2,0-3.9-1.7-3.9-3.9
		c0-2.2,1.8-3.9,3.9-3.9h10.3c2.2,0,3.9,1.7,3.9,3.9S249.2,210,247.1,210z M247.1,181h-38.5c-2.2,0-3.9-1.8-3.9-3.9
		c0-2.2,1.7-3.9,3.9-3.9h38.5c2.2,0,3.9,1.7,3.9,3.9C251,179.2,249.2,181,247.1,181z M174.1,151.9c-2.2,0-3.9-1.7-3.9-3.9
		s1.7-3.9,3.9-3.9h73c2.2,0,3.9,1.8,3.9,3.9s-1.8,3.9-3.9,3.9H174.1z"/>
	<rect x="134.3" y="57.6" width="108.8" height="28.2"/>
</g>
<path d="M155,280.5h12.3v-51.3c0-28.2-23.1-51.3-51.3-51.3H63.2c-28.2,0-51.3,23.1-51.3,51.3v51.3h9.4v-60.2
	c0-7.9,6.5-14.5,14.5-14.5h104.8c8,0,14.5,6.5,14.5,14.5L155,280.5L155,280.5z"/>
<rect x="25.5" y="294.1" width="125.3" height="5.1"/>
<path d="M140.6,213.7H35.7c-3.6,0-6.6,3-6.6,6.6v66.1h118.1v-66.1C147.2,216.6,144.2,213.7,140.6,213.7L140.6,213.7L140.6,213.7z"/>
<path d="M88.1,233.1c15,0,22.6,18.3,12,28.9c-10.6,10.6-28.9,3.1-28.9-12C71.2,240.6,78.8,233.1,88.1,233.1L88.1,233.1L88.1,233.1z"
	/>
<path d="M94.6,243.6c-5.7-5.7-15.5-1.6-15.5,6.4s9.8,12.1,15.5,6.4C98.1,252.9,98.1,247.1,94.6,243.6L94.6,243.6z"/>
</svg>
