<?xml version="1.0" encoding="utf-8"?>
<!-- Generator: Adobe Illustrator 28.0.0, SVG Export Plug-In . SVG Version: 6.00 Build 0)  -->
<svg version="1.1" id="Capa_1" xmlns="http://www.w3.org/2000/svg" xmlns:xlink="http://www.w3.org/1999/xlink" x="0px" y="0px"
	 viewBox="0 0 300 300" style="enable-background:new 0 0 300 300;" xml:space="preserve">
<g>
	<path d="M176.3,202.1H167l0,0c-0.5,0.1-1,0.1-1.4,0h-3.9v0c-1.7,0-3.3-1.1-3.8-2.9c-2.5-8.7-7.6-17.8-14-24.2
		c-1.3-1.2-1.6-3.2-0.7-4.8l7.3-12.6l-22.9-13.2l-7.3,12.6c-0.8,1.5-2.6,2.4-4.4,1.9c-4.6-1.1-9.3-1.7-14.1-1.7s-9.4,0.6-14,1.7v0
		c-1.7,0.4-3.5-0.3-4.4-1.9l-7.3-12.6l-22.9,13.2l7.3,12.6c0.9,1.5,0.7,3.4-0.6,4.7c-6.6,6.9-11.4,15.1-14,24.3h0
		c-0.5,1.6-2,2.9-3.8,2.9H27.8v26.4h14.6v0c1.7,0,3.3,1.1,3.8,2.9c2.5,8.7,7.6,17.8,14,24.2c1.3,1.2,1.6,3.2,0.7,4.8L53.4,273
		l22.9,13.2l7.2-12.6c0.8-1.5,2.6-2.4,4.4-1.9c9.3,2.3,18.8,2.3,28.1,0c1.7-0.4,3.5,0.3,4.4,1.9l7.3,12.6l22.9-13.2l-7.3-12.6
		c-0.9-1.5-0.7-3.4,0.6-4.7c6.6-6.9,11.4-15.1,14-24.3h0c0.5-1.6,2-2.9,3.8-2.9h14.6V202.1z M125,255.2c-22,12.7-50.1,5.2-62.8-16.8
		h0c-12.7-22-5.2-50.1,16.8-62.8v0c22-12.7,50.1-5.2,62.8,16.8C154.5,214.4,147,242.5,125,255.2z"/>
	<path d="M270.5,185.6l12.6,7.3l13.2-22.9l-12.6-7.2c-1.5-0.8-2.3-2.6-1.9-4.4c2.3-9.2,2.3-18.9,0-28.1h0c-0.4-1.7,0.3-3.5,1.9-4.4
		l12.6-7.3l-13.2-22.9l-12.4,7.2c-1.5,1-3.6,0.9-4.9-0.5c-3.4-3.3-7.2-6.1-11.3-8.5l0,0c-4-2.3-8.3-4.1-12.8-5.5c-1.7-0.4-3-2-3-3.8
		V70.1h-26.4v14.6c0,1.7-1.1,3.3-2.9,3.8c-8.8,2.5-17.8,7.6-24.2,14c-1.2,1.3-3.2,1.6-4.8,0.7l-12.6-7.3l-13.2,22.9l12.6,7.2
		c1.5,0.8,2.3,2.6,1.9,4.4c-2.3,9.2-2.3,18.9,0,28.1c0.4,1.6-0.3,3.5-1.9,4.4l-12.6,7.3l13.2,22.9l12.6-7.3c1.5-0.9,3.4-0.7,4.7,0.6
		c3.4,3.3,7.2,6.1,11.3,8.5c4,2.3,8.3,4.1,12.8,5.4c1.7,0.4,3,2,3,3.8v14.6h26.4V204c0-1.7,1.1-3.3,2.9-3.8
		c8.8-2.5,17.8-7.6,24.2-14C266.9,185,268.9,184.7,270.5,185.6z M225.4,190.3c-25.4,0-46-20.6-46-46s20.6-46,46-46v0
		c25.4,0,46,20.6,46,46S250.8,190.3,225.4,190.3z"/>
	<path d="M252.4,117.4L252.4,117.4c-14.9-14.9-39-14.9-53.9,0s-14.9,39,0,53.9c9.1,9.1,21.5,12.6,33.3,10.6l-7.3-2.4
		c-1.7-0.4-3-2-3-3.8c0-1.4,0.7-2.7,1.8-3.3l7-5.2c1.7-1.3,4.2-0.9,5.5,0.8c0.3,0.4,0.5,0.9,0.6,1.4c9.6-4.2,16.3-13.8,16.3-25
		c0-15.1-12.2-27.3-27.3-27.3c-2.2,0-4-1.8-4-4c0-2.2,1.8-3.9,4-3.9c19.4,0,35.2,15.8,35.2,35.2c0,15.1-9.5,28-22.9,33
		c0.2,0.7,0.2,1.6,0,2.4c-0.1,0.3-0.2,0.6-0.4,0.8c5.5-1.8,10.7-4.9,15.1-9.3C267.2,156.4,267.2,132.2,252.4,117.4z M206.9,112.2
		c1.9-1.1,4.3-0.4,5.4,1.5l1.9,3.2c1.1,1.9,0.4,4.3-1.4,5.4c-1.9,1.1-4.3,0.4-5.4-1.4l-1.9-3.2v0C204.4,115.7,205,113.3,206.9,112.2
		z M188.3,144.3c0-2.2,1.8-3.9,3.9-3.9h3.7c2.2,0,3.9,1.8,3.9,3.9s-1.8,4-3.9,4h-3.7C190.1,148.3,188.3,146.5,188.3,144.3z
		 M201.9,162.4l-3.2,1.9h0c-1.9,1.1-4.3,0.5-5.4-1.4c-1.1-1.9-0.5-4.3,1.4-5.4l3.2-1.9c1.9-1.1,4.3-0.5,5.4,1.4
		C204.4,158.9,203.8,161.3,201.9,162.4z M203.4,131.6c-1.1,1.9-3.5,2.5-5.4,1.4l-3.2-1.9v0c-1.9-1.1-2.5-3.5-1.4-5.4
		c1.1-1.9,3.5-2.5,5.4-1.5l3.2,1.9C203.8,127.3,204.5,129.7,203.4,131.6z M214.1,171.7l-1.9,3.2c-1.1,1.9-3.5,2.5-5.4,1.4
		c-1.9-1.1-2.5-3.5-1.4-5.4l1.9-3.2c1.1-1.9,3.5-2.5,5.4-1.4C214.6,167.4,215.2,169.8,214.1,171.7z M225.4,133.1L225.4,133.1
		c10,0,15,12.1,7.9,19.2c-2.8,2.8-6.5,3.7-9.8,3.1l-2.6,4.4c-1.1,1.9-3.5,2.5-5.4,1.4c-1.9-1.1-2.5-3.5-1.4-5.4l2.6-4.4
		c-1.6-1.9-2.6-4.3-2.6-7.2C214.2,138.1,219.2,133.1,225.4,133.1z"/>
	<path d="M227.8,146.7c1.3-1.3,1.3-3.4,0-4.7c-2.1-2.1-5.7-0.6-5.7,2.4S225.7,148.8,227.8,146.7z"/>
	<path d="M111.9,178.5L111.9,178.5c-20.3-5.5-41.2,6.6-46.7,26.9c-2.5,9.4-1.4,19.8,3.8,28.9l0,0c5.4,9.2,13.6,15.2,23.1,17.8
		c20.3,5.4,41.2-6.6,46.7-26.9C144.3,204.9,132.2,184,111.9,178.5z"/>
	<path d="M81.2,83.9h6.7v58.1h0c0,2.2,1.8,4,4,4h21c2.2,0,3.9-1.8,3.9-4V83.9h6.7v0c3.1,0,5.1-3.6,3.2-6.2l-21.1-29.2
		c-1.6-2.2-4.8-2.3-6.4-0.1l-21,29C75.9,80.3,78.1,83.9,81.2,83.9z"/>
	<path d="M41,188.6v-58.2h6.7c3.1,0,5.1-3.6,3.2-6.2L29.8,95c-1.5-2.2-4.8-2.3-6.4-0.1l-21,29c-2.3,2.9-0.1,6.5,3,6.5h6.7v58.2h0
		c0,2.2,1.8,4,3.9,4h21C39.2,192.6,41,190.8,41,188.6z"/>
	<path d="M198.9,251.3h-24.3c-2.2,0-3.9,1.8-3.9,4v38c0,2.2,1.8,3.9,3.9,3.9h24.3c2.2,0,4-1.8,4-3.9v-38
		C202.9,253.1,201.1,251.3,198.9,251.3z"/>
	<path d="M247.3,235.4H223c-2.2,0-4,1.8-4,3.9v53.8c0,2.2,1.8,3.9,4,3.9h24.3c2.2,0,3.9-1.8,3.9-3.9v-53.8
		C251.2,237.2,249.4,235.4,247.3,235.4z"/>
	<path d="M295.6,219.3h-24.3c-2.2,0-3.9,1.8-3.9,3.9v70c0,2.2,1.8,3.9,3.9,3.9h24.3c2.2,0,4-1.8,4-3.9v-46.7v-23.3
		C299.6,221,297.8,219.3,295.6,219.3z"/>
</g>
</svg>
