<?xml version="1.0" encoding="utf-8"?>
<!-- Generator: Adobe Illustrator 28.0.0, SVG Export Plug-In . SVG Version: 6.00 Build 0)  -->
<svg version="1.1" id="Capa_1" xmlns="http://www.w3.org/2000/svg" xmlns:xlink="http://www.w3.org/1999/xlink" x="0px" y="0px"
	 viewBox="0 0 300 300" style="enable-background:new 0 0 300 300;" xml:space="preserve">
<g>
	<g>
		<g>
			<path d="M275.7,179.2h-47.2c-0.6-8.8,3.6-28.7-10.7-28.4c0,0-52.8,0-52.8,0c-14.2-0.3-10.2,19.6-10.7,28.4c-8-2.3-14.9,7-4.9,9.5
				c0,0,126.3,0,126.3,0c6.6-1.1,1.7,31.7,3.2,34.4c0,1.9-1.4,3.4-3.2,3.4c-2.9,0.7-167.6-1.3-170.2,0.7c-4.9-0.7-1.4,49.6-2.4,51.8
				c0,7.6,6.1,13.8,13.6,13.8H266c22.7,0.9,10.8-45.4,13.6-57.4c14.4-3.2,7.1-33.6,8.7-43.3C288.4,185,282.7,179.2,275.7,179.2z
				 M218.9,179.1h-55.1c0.7-0.9-1.3-19.4,1.1-18.8c0,0,52.8,0,52.8,0C220.1,159.7,218.3,178.3,218.9,179.1z M171.3,247.3
				c-4.9,34.3-46.5,21-39.3-11.2h9.5c-4.5,29.3,24.7,29.3,20.3,0h9.5V247.3z M250.8,247.3c-4.8,34.3-46.5,21-39.3-11.2h9.5
				c-4.5,29.3,24.7,29.3,20.3,0h9.5V247.3z"/>
			<path d="M143.3,88.6c1.8-0.1,3.4-1.3,4-3c0.1-1.6,16.1-38.7,13.4-39c-22.1-58-21.2-25.5-36.4,8.9L112,50.7
				C123.6,15,145.8-8.7,90.8,19.8c-2.3-1.7-15,36.9-16,38C72.1,62.4,86.3,73,88,76.2l-6.6,17.3C15.2,118,50.1,67.8,11.6,162.8
				c-3.3,6.4,15.1,12.2,18,15.2c22.9,33.7,37.2,28.3,72.5,37.7c13.8,3.5,16.9-11.3,22.2-20.1c6.6-6.2,13.8-14,13.2-23.8
				c5.8-18.1,22.8-26.4-6.2-36c-3.1-9.2-1.2-23.5-13.5-26l7.3-19.2L143.3,88.6z M117.4,84.3l-8.2,21.3l-18.9-8.7
				c8.3-22.4,13-20.3-5.6-38.4l11.7-30.7l17-7.6l-12.1,31.7c-3.8,8,20.5,11.4,24,14.3c8.3,4.5,15.1-31.2,18.2-34.4l7.6,17
				l-11.7,30.8C136,80.6,118.4,79.2,117.4,84.3z"/>
		</g>
	</g>
</g>
</svg>
