<?xml version="1.0" encoding="utf-8"?>
<!-- Generator: Adobe Illustrator 28.0.0, SVG Export Plug-In . SVG Version: 6.00 Build 0)  -->
<svg version="1.1" id="Capa_1" xmlns="http://www.w3.org/2000/svg" xmlns:xlink="http://www.w3.org/1999/xlink" x="0px" y="0px"
	 viewBox="0 0 300 300" style="enable-background:new 0 0 300 300;" xml:space="preserve">
<path d="M125.9,94.4c-16.9-16.9-44.3-16.9-61.1,0c-16.9,16.9-16.9,44.2,0,61.1c16.9,16.9,44.2,16.9,61.1,0
	C142.8,138.6,142.8,111.3,125.9,94.4L125.9,94.4z"/>
<path d="M125.6,183.7H112l-4.6,13l7.2,59.2c0.2,1.8-0.7,3.5-2.2,4.4l-14.5,9.8c-0.2,0.1-0.4,0.2-0.6,0.3h0l-0.1,0l0,0l-0.1,0l-0.1,0
	l0,0c-0.6,0.2-1.1,0.3-1.7,0.3s-1.2-0.1-1.8-0.3l0,0l-0.1,0l-0.1,0l0,0l-0.1,0l0,0c-0.2-0.1-0.4-0.2-0.6-0.3l-14.5-9.8
	c-1.5-0.9-2.4-2.6-2.2-4.4l7.2-59.2l-4.6-13H65.1c-32.4,0-58.8,26.5-58.8,58.8v58.8h27.2v-60.9c0-2.4,2-4.4,4.4-4.4
	c2.4,0,4.4,2,4.4,4.4v60.9h106.2v-60.9c0-2.4,2-4.4,4.4-4.4s4.4,2,4.4,4.4v60.9h27.1v-58.8C184.4,210.1,158,183.7,125.6,183.7
	L125.6,183.7L125.6,183.7z"/>
<polygon points="102.6,183.7 87.9,183.7 90.8,191.7 99.7,191.7 102.6,183.7 "/>
<polygon points="91.6,200.6 85.1,254.2 95.3,261.1 105.4,254.2 98.9,200.6 91.6,200.6 "/>
<path d="M275.9,39H187c-6.8,0-12.3,5.6-12.3,12.4v42.2c0,5.6,3.8,10.4,9,11.9c1.8,0.5,2.9,2.3,2.5,4.1l-3.4,15l17.1-17.5
	c0.7-0.7,1.6-1.1,2.5-1.1h32.2l0,0h41.4c6.8,0,12.3-5.6,12.3-12.4V51.3C288.3,44.5,282.7,39,275.9,39z M193.6,50.5h51.5
	c1.9,0,3.5,1.6,3.5,3.5c0,1.9-1.6,3.5-3.5,3.5h-51.5c-1.9,0-3.5-1.6-3.5-3.5C190.1,52.1,191.7,50.5,193.6,50.5z M193.6,69.4h75.7
	c1.9,0,3.5,1.6,3.5,3.5c0,1.9-1.6,3.5-3.5,3.5h-75.7c-1.9,0-3.5-1.6-3.5-3.5C190.1,70.9,191.7,69.4,193.6,69.4z M269.8,95.1H194
	c-1.9,0-3.5-1.6-3.5-3.5c0-1.9,1.6-3.5,3.5-3.5h75.7c1.9,0,3.5,1.6,3.5,3.5C273.3,93.6,271.7,95.1,269.8,95.1z"/>
<path d="M26.6,107.5c0-2.2,1.5-4,3.6-4.4C39.3,75.9,65,56.2,95.3,56.2s56,19.6,65.1,46.9c2.1,0.4,3.6,2.2,3.6,4.4v3.8
	c0.7-0.4,1.5-0.7,2.4-0.7c2.4,0,4.4,2,4.4,4.4v19.8c0,2.5-2,4.4-4.4,4.4c-0.9,0-1.7-0.3-2.4-0.7v3.8c0,2.4-2,4.4-4.4,4.4
	c-1.3,0-2.5-0.6-3.3-1.5c-0.8,0.9-2,1.5-3.3,1.5c-2.4,0-4.4-2-4.4-4.4v-35c0-1.8,1.1-3.3,2.6-4c-8.6-22.4-30.4-38.3-55.8-38.3
	S48.1,81,39.5,103.4c1.5,0.7,2.6,2.2,2.6,4v35c0,1.5-0.7,2.8-1.9,3.6l11.1,19.2c1.2,2.1,0.5,4.8-1.6,6.1c-2.1,1.2-4.8,0.5-6-1.6
	l-13.3-22.9c-2.2-0.3-3.9-2.1-3.9-4.4v-3.8c-0.7,0.4-1.5,0.7-2.4,0.7c-2.4,0-4.4-2-4.4-4.4v-19.8c0-2.4,2-4.4,4.4-4.4
	c0.9,0,1.7,0.3,2.4,0.7L26.6,107.5L26.6,107.5z"/>
</svg>
